<?xml version="1.0" encoding="UTF-8" standalone="no"?>
<!-- Generator: Adobe Illustrator 15.0.0, SVG Export Plug-In  -->

<svg
   xmlns:dc="http://purl.org/dc/elements/1.1/"
   xmlns:cc="http://creativecommons.org/ns#"
   xmlns:rdf="http://www.w3.org/1999/02/22-rdf-syntax-ns#"
   xmlns:svg="http://www.w3.org/2000/svg"
   xmlns="http://www.w3.org/2000/svg"
   xmlns:xlink="http://www.w3.org/1999/xlink"
   xmlns:sodipodi="http://sodipodi.sourceforge.net/DTD/sodipodi-0.dtd"
   xmlns:inkscape="http://www.inkscape.org/namespaces/inkscape"
   version="1.1"
   x="0px"
   y="0px"
   width="610"
   height="610"
   viewBox="132.396 -0.5 610.00001 610.00001"
   enable-background="new 132.396 -0.5 524 659"
   xml:space="preserve"
   id="svg6799"
   inkscape:version="0.48.4 r9939"
   sodipodi:docname="LMH_One_colour.svg"
   inkscape:export-filename="C:\Users\Tom\LMH App Files\512.png"
   inkscape:export-xdpi="75.540985"
   inkscape:export-ydpi="75.540985"><metadata
   id="metadata7357"><rdf:RDF><cc:Work
       rdf:about=""><dc:format>image/svg+xml</dc:format><dc:type
         rdf:resource="http://purl.org/dc/dcmitype/StillImage" /><dc:title></dc:title></cc:Work></rdf:RDF></metadata><sodipodi:namedview
   pagecolor="#2b2b1e"
   bordercolor="#666666"
   borderopacity="1"
   objecttolerance="10"
   gridtolerance="10"
   guidetolerance="10"
   inkscape:pageopacity="0"
   inkscape:pageshadow="2"
   inkscape:window-width="1366"
   inkscape:window-height="706"
   id="namedview7355"
   showgrid="false"
   inkscape:zoom="0.90509668"
   inkscape:cx="136.79165"
   inkscape:cy="486.60585"
   inkscape:window-x="-8"
   inkscape:window-y="-8"
   inkscape:window-maximized="1"
   inkscape:current-layer="svg6799"
   fit-margin-top="0"
   fit-margin-left="0"
   fit-margin-right="0"
   fit-margin-bottom="0"
   height="2104.72px"
   showborder="true" />
<defs
   id="defs6801"><radialGradient
   gradientUnits="userSpaceOnUse"
   r="48.400501"
   cy="523.53998"
   cx="394.20169"
   id="radialGradient9319">
			<stop
   id="stop9321"
   style="stop-color:#262262"
   offset="0" />
			<stop
   id="stop9323"
   style="stop-color:#2E3192"
   offset="1" />
		</radialGradient><radialGradient
   gradientUnits="userSpaceOnUse"
   r="47.569"
   cy="542.96002"
   cx="394.20169"
   id="radialGradient9313">
			<stop
   id="stop9315"
   style="stop-color:#262262"
   offset="0" />
			<stop
   id="stop9317"
   style="stop-color:#2E3192"
   offset="1" />
		</radialGradient><radialGradient
   gradientUnits="userSpaceOnUse"
   r="19.3379"
   cy="419.88379"
   cx="394.20261"
   id="radialGradient9307"
   fx="394.20261"
   fy="419.88379"
   spreadMethod="pad">
			<stop
   id="stop9309"
   style="stop-color:#262262"
   offset="0" />
			<stop
   id="stop9311"
   style="stop-color:#2E3192"
   offset="1" />
		</radialGradient><radialGradient
   gradientUnits="userSpaceOnUse"
   r="19.3379"
   cy="419.88379"
   cx="394.20261"
   id="radialGradient9301">
			<stop
   id="stop9303"
   style="stop-color:#262262"
   offset="0" />
			<stop
   id="stop9305"
   style="stop-color:#2E3192"
   offset="1" />
		</radialGradient>
<clipPath
   clipPathUnits="userSpaceOnUse"
   id="clipPath4366"><use
     height="659"
     width="524"
     y="0"
     x="0"
     style="fill:#ff00ff;overflow:visible"
     id="use4368"
     overflow="visible"
     xlink:href="#SVGID_2_"
     transform="translate(-89.452995,1.643005)" /></clipPath></defs>
<linearGradient
   id="SVGID_3_"
   gradientUnits="userSpaceOnUse"
   x1="170.1851"
   y1="515.30371"
   x2="225.07941"
   y2="536.37567"
   gradientTransform="translate(-6.8430057,2.7860081)">
	<stop
   offset="0"
   style="stop-color:#8B5E3C"
   id="stop6804" />
	<stop
   offset="0.497"
   style="stop-color:#FDC060"
   id="stop6806" />
</linearGradient>
<path
   display="none"
   stroke-miterlimit="10"
   d="m 234.64599,496.41401 -72,70 c 0,0 -13.53,0.171 -11,-15 2.529,-15.171 23,-55 23,-55 0,0 1,-8 21,-9 20,-1 39,9 39,9 z"
   id="path6808"
   inkscape:connector-curvature="0"
   style="fill:url(#SVGID_3_);stroke:#000000;stroke-width:3;stroke-miterlimit:10;display:none" />
<linearGradient
   id="SVGID_4_"
   gradientUnits="userSpaceOnUse"
   x1="563.32568"
   y1="536.37598"
   x2="618.21997"
   y2="515.30402"
   gradientTransform="translate(-6.8430057,2.7860081)">
	<stop
   offset="0.503"
   style="stop-color:#FDC060"
   id="stop6811" />
	<stop
   offset="1"
   style="stop-color:#8B5E3C"
   id="stop6813" />
</linearGradient>
<path
   display="none"
   stroke-miterlimit="10"
   d="m 540.07399,496.41401 72,70 c 0,0 13.529,0.171 11,-15 -2.529,-15.171 -23,-55 -23,-55 0,0 -1,-8 -21,-9 -20,-1 -39,9 -39,9 z"
   id="path6815"
   inkscape:connector-curvature="0"
   style="fill:url(#SVGID_4_);stroke:#000000;stroke-width:3;stroke-miterlimit:10;display:none" />
<linearGradient
   id="SVGID_5_"
   gradientUnits="userSpaceOnUse"
   x1="133.8965"
   y1="461.1279"
   x2="239.4888"
   y2="461.1279"
   gradientTransform="translate(-6.8430057,2.7860081)">
	<stop
   offset="0"
   style="stop-color:#BCBEC0"
   id="stop6818" />
	<stop
   offset="0.3333"
   style="stop-color:#E6E7E8"
   id="stop6820" />
</linearGradient>
<path
   display="none"
   stroke-miterlimit="10"
   d="m 127.646,459.41401 c 0,-18 7.31599,-28 35,-28 27.684,0 51,8 51,8 l 19,57 c 0,0 -71.883,-16.141 -90.941,-9.07 -19.058,7.071 -14.059,-27.93 -14.059,-27.93 z"
   id="path6822"
   inkscape:connector-curvature="0"
   style="fill:url(#SVGID_5_);stroke:#000000;stroke-width:3;stroke-miterlimit:10;display:none" />
<linearGradient
   id="SVGID_6_"
   gradientUnits="userSpaceOnUse"
   x1="548.9165"
   y1="461.1279"
   x2="654.5083"
   y2="461.1279"
   gradientTransform="translate(-6.8430057,2.7860081)">
	<stop
   offset="0.6316"
   style="stop-color:#E6E7E8"
   id="stop6825" />
	<stop
   offset="0.6867"
   style="stop-color:#DBDCDD"
   id="stop6827" />
	<stop
   offset="0.7932"
   style="stop-color:#CACBCD"
   id="stop6829" />
	<stop
   offset="0.8984"
   style="stop-color:#BFC1C3"
   id="stop6831" />
	<stop
   offset="1"
   style="stop-color:#BCBEC0"
   id="stop6833" />
</linearGradient>
<path
   display="none"
   stroke-miterlimit="10"
   d="m 647.07399,459.41401 c 0,-18 -7.316,-28 -35,-28 -27.684,0 -51,8 -51,8 l -19,57 c 0,0 71.883,-16.141 90.941,-9.07 19.058,7.071 14.059,-27.93 14.059,-27.93 z"
   id="path6835"
   inkscape:connector-curvature="0"
   style="fill:url(#SVGID_6_);stroke:#000000;stroke-width:3;stroke-miterlimit:10;display:none" />
<path
   display="none"
   stroke-miterlimit="10"
   d="m 127.646,459.41401 c 0,0 8,6 23,6 9.731,10.067 11,32 11,58.345 -25,-1.345 -34,-19.345 -34,-48.345 0,-29 0,-16 0,-16 z"
   id="path6837"
   inkscape:connector-curvature="0"
   style="fill:#fbb040;stroke:#000000;stroke-width:3;stroke-miterlimit:10;display:none" />
<path
   display="none"
   stroke-miterlimit="10"
   d="m 647.07399,459.41401 c 0,0 -8,6 -23,6 -9.731,10.067 -11,32 -11,58.345 25,-1.345 34,-19.345 34,-48.345 0,-29 0,-16 0,-16 z"
   id="path6839"
   inkscape:connector-curvature="0"
   style="fill:#fbb040;stroke:#000000;stroke-width:3;stroke-miterlimit:10;display:none" />
<g
   id="g6841"
   transform="translate(42.943005,1.143005)">
	<defs
   id="defs6843">
		<path
   id="SVGID_2_"
   d="m 393.759,3.5 h -251.02 c 0,0 0,138.937 0,258.714 0,161.081 140,299 251.714,341 118.286,-39 251.714,-175.92 251.714,-337 0,-119.778 0,-262.714 0,-262.714 H 393.759 z"
   inkscape:connector-curvature="0" />
	</defs>
	<linearGradient
   id="SVGID_7_"
   gradientUnits="userSpaceOnUse"
   x1="142.7388"
   y1="303.3569"
   x2="646.1665"
   y2="303.3569">
		<stop
   offset="0"
   style="stop-color:#F9ED32"
   id="stop6847" />
		<stop
   offset="1"
   style="stop-color:#FBB040"
   id="stop6849" />
	</linearGradient>
	<use
   xlink:href="#SVGID_2_"
   overflow="visible"
   id="use6851"
   style="fill:none;overflow:visible"
   x="0"
   y="0"
   width="524"
   height="659" />
	<clipPath
   id="SVGID_8_">
		<use
   xlink:href="#SVGID_2_"
   overflow="visible"
   id="use6854"
   style="overflow:visible"
   x="0"
   y="0"
   width="524"
   height="659" />
	</clipPath>
	<g
   clip-path="url(#SVGID_8_)"
   id="g6856">
		<radialGradient
   id="SVGID_9_"
   cx="431.98969"
   cy="51.382801"
   r="10.7892"
   gradientUnits="userSpaceOnUse">
			<stop
   offset="0"
   style="stop-color:#262262"
   id="stop6859" />
			<stop
   offset="1"
   style="stop-color:#2E3192"
   id="stop6861" />
		</radialGradient>
		<path
   style="fill:#ffffff;fill-opacity:1;stroke:none;stroke-width:2;stroke-miterlimit:10"
   d="M 351.59375 46.96875 C 351.35493 46.953552 351.12756 46.970063 350.875 47 C 349.15329 47.204134 346.84029 47.496029 344.46875 47.90625 C 344.50715 48.213161 344.57155 48.523918 344.59375 48.84375 C 344.65442 49.716763 344.63312 50.583259 344.5 51.375 C 344.43344 51.770871 344.34067 52.170623 344.15625 52.53125 C 343.97183 52.891877 343.67708 53.254201 343.1875 53.4375 C 342.7195 53.613039 342.24522 53.541994 341.875 53.40625 C 341.50478 53.270506 341.17543 53.076864 340.875 52.84375 C 340.27414 52.377521 339.72399 51.76986 339.21875 51.15625 C 338.71985 50.550332 338.23208 49.938208 337.90625 49.46875 C 337.14416 49.722624 336.42076 49.982693 335.8125 50.28125 C 332.0465 52.13025 327.05075 56.52775 328.96875 58.71875 C 330.81075 60.82375 337.031 53.5025 340.25 54.1875 C 343.469 54.8725 355.45275 55.29375 356.34375 53.71875 C 357.17906 52.242188 355.17604 47.196716 351.59375 46.96875 z M 342.5 48.28125 C 341.64747 48.45368 340.8077 48.636713 340 48.84375 C 340.18317 49.112165 340.40975 49.423815 340.78125 49.875 C 341.23464 50.42564 341.73295 50.945791 342.125 51.25 C 342.25238 51.34884 342.31865 51.39 342.40625 51.4375 C 342.44435 51.332433 342.49935 51.252317 342.53125 51.0625 C 342.62075 50.530335 342.64725 49.739362 342.59375 48.96875 C 342.57784 48.739612 342.52776 48.504696 342.5 48.28125 z "
   transform="translate(89.452995,-1.643005)"
   id="path6863" />
		<radialGradient
   id="SVGID_10_"
   cx="430.37939"
   cy="47.398399"
   r="3.1131999"
   gradientUnits="userSpaceOnUse">
			<stop
   offset="0"
   style="stop-color:#262262"
   id="stop6866" />
			<stop
   offset="1"
   style="stop-color:#2E3192"
   id="stop6868" />
		</radialGradient>
		
		<radialGradient
   id="SVGID_11_"
   cx="553.31787"
   cy="135.9512"
   r="35.863098"
   gradientUnits="userSpaceOnUse">
			<stop
   offset="0"
   style="stop-color:#262262"
   id="stop6873" />
			<stop
   offset="1"
   style="stop-color:#2E3192"
   id="stop6875" />
		</radialGradient>
		<path
   style="fill:#ffffff;fill-opacity:1;stroke:none"
   d="m 481.3125,100.46875 c -1.37749,0.0666 -2.68971,0.50232 -4.1875,1.25 -2.55017,1.27301 -5.51226,3.44714 -9.53125,6 -1.21768,0.77347 -2.59761,1.57893 -4.03125,2.40625 -1.377,3.78952 -2.30493,8.44236 -2.5,14.1875 -0.28,8.224 6.70325,16.02425 6.15625,17.53125 -0.548,1.506 -9.86225,22.3355 -14.65625,24.9375 -4.794,2.603 -9.30075,2.46875 -11.21875,5.34375 -1.917,2.877 -4.2415,6.28275 -2.1875,6.96875 2.055,0.685 10.19025,2.34375 13.65625,2.34375 3.466,0 26.06175,-36.30425 30.71875,-38.90625 3.1112,-1.73832 3.27147,-18.92983 3.78125,-30.8125 -1.72303,-4.39892 -2.10155,-8.12517 -3.40625,-10.96875 -0.90429,-0.2156 -1.76726,-0.32118 -2.59375,-0.28125 z"
   transform="translate(89.452995,-1.643005)"
   id="path6877"
   inkscape:connector-curvature="0"
   sodipodi:nodetypes="sssccccccssccs" />
		<radialGradient
   id="SVGID_12_"
   cx="447.80911"
   cy="130.6523"
   r="29.125601"
   gradientUnits="userSpaceOnUse">
			<stop
   offset="0"
   style="stop-color:#262262"
   id="stop6880" />
			<stop
   offset="1"
   style="stop-color:#2E3192"
   id="stop6882" />
		</radialGradient>
		<path
   style="fill:#ffffff;fill-opacity:1;stroke:none"
   d="m 364.78125,107.1875 c -0.91259,0.26971 -1.77675,0.6219 -2.59375,1.09375 -9.725,5.616 -21.80225,5.06575 -27.28125,13.96875 -5.479,8.902 -0.416,13.41525 -4.25,19.03125 -3.836,5.615 -5.6045,8.6335 -3.6875,10.6875 1.918,2.054 2.47375,6.44225 3.84375,6.03125 1.369,-0.411 1.92675,-4.649 3.84375,-4.375 1.918,0.274 4.5,-0.40875 4.5,-1.09375 0,-0.685 0.41775,-14.1115 2.46875,-19.3125 2.051,-5.201 -1.104,-9.59975 33,-8.09375 4.88338,-0.0725 8.31811,-0.29543 10.75,-0.625 -12.02509,-3.15542 -16.76186,-10.47657 -20.59375,-17.3125 z"
   transform="translate(89.452995,-1.643005)"
   id="path6884"
   inkscape:connector-curvature="0"
   sodipodi:nodetypes="cccccccssccc" />
		<radialGradient
   id="SVGID_13_"
   cx="521.8042"
   cy="103.4189"
   r="95.180199"
   gradientUnits="userSpaceOnUse">
			<stop
   offset="0"
   style="stop-color:#262262"
   id="stop6887" />
			<stop
   offset="1"
   style="stop-color:#2E3192"
   id="stop6889" />
		</radialGradient>
		<path
   style="fill:#ffffff;fill-opacity:1;stroke:none;stroke-width:2;stroke-miterlimit:10"
   d="M 365.5625 19.96875 C 353.95609 20.017281 352.10687 26.524563 345.875 28.75 C 338.205 31.489 329.04075 34.606 328.21875 36.25 C 327.80147 37.086604 328.28902 37.780527 328.84375 38.4375 L 329 38.21875 C 329.37709 37.653725 329.71844 37.649787 330.09375 37.53125 C 330.46906 37.412713 330.88959 37.33114 331.34375 37.28125 C 332.25208 37.181474 333.27284 37.162798 334.1875 37.5 C 334.34445 37.557741 334.5118 37.634875 334.71875 37.84375 C 334.9257 38.052625 335.10664 38.572675 335 38.9375 C 334.89336 39.302325 334.69713 39.426311 334.5625 39.53125 C 334.42787 39.636189 334.30635 39.72386 334.1875 39.78125 C 333.7121 40.010811 333.17116 40.132025 332.5625 40.28125 C 331.34519 40.5797 330 40.8125 330 40.8125 L 329.75 40.84375 C 329.46212 42.683987 329.30711 47.195193 335.59375 49.125 C 342.51075 51.249 353.28125 46.45925 353.28125 50.15625 C 353.28125 53.85425 336.5555 53.222 338.0625 57.125 C 339.5695 61.028 347.777 55.084 357.5 59.125 C 367.225 63.166 358.89375 94.596 365.46875 106.375 C 369.48991 113.58113 374.0479 121.07117 387.1875 123.9375 C 387.17686 123.72486 387.12648 122.49792 387.125 122.46875 C 386.66671 122.00124 380.50696 115.66032 377.5 107.6875 C 375.9403 103.55203 375.29144 98.988305 377.03125 94.75 C 378.77106 90.511695 382.86396 86.774492 390.34375 84.25 L 391 86.15625 C 383.86979 88.562758 380.354 91.897055 378.875 95.5 C 377.396 99.102945 377.92145 103.14597 379.375 107 C 382.28211 114.70807 388.84375 121.375 388.84375 121.375 L 389.09375 121.65625 L 389.125 122.03125 C 389.125 122.03125 389.80287 135.43495 390.03125 149.0625 C 390.14544 155.87627 390.13392 162.74736 389.875 168.0625 C 389.74554 170.72007 389.56787 172.97822 389.28125 174.6875 C 389.13794 175.54214 388.96648 176.25363 388.75 176.84375 C 388.53352 177.43387 388.3325 177.97438 387.65625 178.3125 C 385.76321 179.25902 382.09492 180.85228 379.1875 182.84375 C 377.73379 183.83948 376.49678 184.93525 375.78125 186 C 375.1774 186.89862 375.01935 187.70056 375.1875 188.5625 C 377.03305 189.26544 378.94687 189.2395 380.78125 188.84375 C 382.76838 188.41505 384.48269 187.6535 385.96875 187.5625 C 386.24391 187.54566 387.32189 187.26468 388.5625 186.78125 C 389.80311 186.29782 391.26695 185.63492 392.65625 184.84375 C 394.04555 184.05258 395.36371 183.14379 396.28125 182.25 C 397.19879 181.35621 397.65025 180.48305 397.65625 179.90625 C 397.68136 177.75963 398.15542 175.1106 398.8125 172.6875 C 399.46958 170.2644 400.25022 168.12945 401.25 166.84375 C 401.16429 166.95399 401.32025 166.73072 401.4375 166.375 C 401.55475 166.01928 401.69381 165.48841 401.84375 164.875 C 402.14363 163.64818 402.48812 161.97796 402.84375 160 C 403.555 156.04408 404.30693 150.89614 404.875 145.625 C 405.44307 140.35386 405.81775 134.94986 405.78125 130.5625 C 405.76299 128.36882 405.65109 126.43906 405.40625 124.90625 C 405.16141 123.37344 404.76512 122.25105 404.40625 121.78125 L 406 120.5625 C 406.74838 121.5422 407.10548 122.90647 407.375 124.59375 C 407.38784 124.67415 407.39409 124.76183 407.40625 124.84375 C 412.4509 124.4623 418.13921 123.72457 424.625 122.53125 C 469.275 114.31325 473.119 96.49425 484.625 99.78125 C 487.844 106.08125 485.913 115.33875 500.5 126.84375 C 515.087 138.34875 519.4745 134.8525 521.1875 138.6875 C 522.8985 142.5225 521.9565 163.8295 520.3125 165.0625 C 516.0655 165.3365 505.16675 169.3765 511.46875 172.9375 C 517.76775 176.4985 527.339 175.4025 530.625 172.9375 C 533.912 170.4735 538.8505 142.8155 535.5625 137.0625 C 532.2765 131.3105 528.91825 128.271 525.90625 120.875 C 522.89225 113.479 521.05475 92.675 517.21875 86.375 C 516.65475 85.447 516.131 84.53125 515.625 83.65625 C 525.676 83.78525 541.3185 71.59475 531.0625 51.71875 C 509.0115 14.190754 473.39325 30.0725 473.53125 32.8125 C 473.66825 35.5515 478.0075 34.33225 483.9375 33.90625 C 511.7405 31.98925 522.02175 52.14125 522.84375 60.90625 C 523.66575 69.67225 515.99225 73.21875 512.15625 73.21875 C 508.32225 73.21875 500.09375 71.21875 500.09375 71.21875 C 498.80075 70.70875 497.39575 70.17525 495.84375 69.65625 C 479.47675 64.17725 407.655 75.34125 398 66.78125 C 393.84749 63.099639 392.90331 54.924994 391.53125 46.46875 C 391.63956 48.579249 391.66645 51.042549 391.625 53.46875 C 391.58195 55.985581 391.48435 58.460967 391.34375 60.46875 C 391.20315 62.476533 391.06472 63.892826 390.8125 64.75 C 390.38633 66.200489 389.32533 67.58139 388.0625 68.96875 C 386.79967 70.35611 385.32508 71.726883 383.9375 72.90625 C 382.82019 73.855902 382.62981 74.894755 382.5 76.03125 C 382.4351 76.599497 382.41224 77.15325 382.25 77.75 C 382.08776 78.34675 381.66522 79.071785 380.9375 79.375 C 380.2855 79.646834 379.5082 79.609661 378.8125 79.375 C 378.1168 79.140339 377.43114 78.739697 376.65625 78.15625 C 375.10647 76.989355 373.20829 75.114545 370.53125 72.4375 C 367.43115 69.337928 367.09136 63.802985 367.40625 58.875 C 367.5637 56.411008 367.92727 54.063062 368.28125 52.25 C 368.45824 51.343469 368.62208 50.577049 368.78125 49.96875 C 368.94042 49.360451 369.05243 48.975099 369.21875 48.625 C 369.828 47.340685 370.33087 45.70922 369.75 43.5625 C 368.68721 43.088878 367.8397 42.24953 367.34375 41.15625 C 366.72232 39.786343 366.41571 38.132683 366.28125 36.5 C 366.14679 34.867317 366.1775 33.253776 366.34375 31.9375 C 366.42688 31.279362 366.5388 30.710669 366.6875 30.21875 C 366.8362 29.726831 366.94152 29.316222 367.46875 28.90625 L 368.6875 30.46875 C 368.7149 30.447441 368.73418 30.449009 368.75 30.4375 C 368.71947 30.495578 368.675 30.615825 368.625 30.78125 C 368.52499 31.112101 368.41685 31.608685 368.34375 32.1875 C 368.19755 33.34513 368.15908 34.860308 368.28125 36.34375 C 368.40342 37.827192 368.6864 39.276751 369.15625 40.3125 C 369.6261 41.348249 370.17814 41.864725 370.84375 41.96875 L 371.4375 42.0625 L 371.625 42.65625 C 372.54029 45.553567 371.76231 47.927655 371.03125 49.46875 C 371.02607 49.479651 370.86471 49.91092 370.71875 50.46875 C 370.57279 51.02658 370.41976 51.786766 370.25 52.65625 C 369.91048 54.395219 369.5568 56.643867 369.40625 59 C 369.10514 63.712265 369.69565 68.789822 371.9375 71.03125 C 374.60246 73.696205 376.51453 75.506895 377.875 76.53125 C 378.55524 77.043428 379.09892 77.344005 379.46875 77.46875 C 379.83858 77.5935 379.98675 77.60192 380.15625 77.53125 C 380.2505 77.491965 380.235 77.503719 380.3125 77.21875 C 380.38998 76.933781 380.428 76.411378 380.5 75.78125 C 380.64394 74.520995 381.00331 72.753348 382.625 71.375 C 383.97642 70.226367 385.42533 68.90864 386.59375 67.625 C 387.76217 66.34136 388.64842 65.065011 388.90625 64.1875 C 388.99653 63.880674 389.20622 62.276498 389.34375 60.3125 C 389.48128 58.348502 389.5826 55.919794 389.625 53.4375 C 389.6675 50.955206 389.64688 48.429562 389.53125 46.34375 C 389.41562 44.257938 389.16253 42.531739 388.9375 41.96875 C 388.18291 40.080906 387.4554 36.895594 386.71875 33.96875 C 386.35043 32.505328 385.98412 31.124308 385.625 30.0625 C 385.26588 29.000692 384.7682 28.21373 384.8125 28.25 L 385.375 27.5625 C 383.0756 24.397559 379.89546 22.046785 375.3125 21.09375 C 371.42169 20.284875 368.2409 19.957551 365.5625 19.96875 z M 353.09375 31.21875 C 354.17794 31.190547 355.26725 31.32225 356.21875 31.6875 C 360.02575 33.1485 359.293 34.61225 359.75 34.15625 C 359.77137 34.134828 359.80307 34.129945 359.8125 34.125 C 359.62376 34.480537 357.39462 37.128 353.71875 36.96875 C 349.51975 36.78675 347.8685 35.774 347.6875 35.5 C 347.5035 35.226 348.71875 35.047 348.71875 34.5 C 348.71875 33.953 349.0565 33.26475 347.6875 32.96875 C 346.66 32.74675 349.84119 31.303359 353.09375 31.21875 z "
   transform="translate(89.452995,-1.643005)"
   id="path6891" />
		
		
		
		<path
   d="m 441.307,31.654 c 0,0.252 1.027,0.525 1.096,0.914 0.068,0.388 -1.004,0.708 -0.867,1.072 0.137,0.365 1.574,1.393 2.465,0.753 0.891,-0.64 1.324,-1.05 1.004,-1.757 -0.318,-0.708 -1.393,-1.644 -2.305,-1.484 -0.914,0.16 -1.393,0.114 -1.393,0.502 z"
   id="path6899"
   style="fill:#ffffff;fill-opacity:1"
   inkscape:connector-curvature="0" />
		
	</g>
	<g
   clip-path="url(#SVGID_8_)"
   id="g6903">
		<radialGradient
   id="SVGID_14_"
   cx="178.9175"
   cy="51.382801"
   r="10.7889"
   gradientUnits="userSpaceOnUse">
			<stop
   offset="0"
   style="stop-color:#262262"
   id="stop6906" />
			<stop
   offset="1"
   style="stop-color:#2E3192"
   id="stop6908" />
		</radialGradient>
		<path
   style="fill:#ffffff;fill-opacity:1;stroke:none;stroke-width:2;stroke-miterlimit:10"
   d="M 98.53125 46.96875 C 98.292431 46.953552 98.065062 46.970063 97.8125 47 C 96.086475 47.204645 93.752805 47.494404 91.375 47.90625 C 91.413405 48.213161 91.477799 48.523918 91.5 48.84375 C 91.56062 49.716763 91.57062 50.583259 91.4375 51.375 C 91.37094 51.770871 91.27817 52.170623 91.09375 52.53125 C 90.90933 52.891877 90.58333 53.254201 90.09375 53.4375 C 89.62575 53.613039 89.15147 53.541994 88.78125 53.40625 C 88.41103 53.270506 88.11293 53.076864 87.8125 52.84375 C 87.21164 52.377521 86.66149 51.76986 86.15625 51.15625 C 85.651015 50.54264 85.170566 49.909097 84.84375 49.4375 C 84.067471 49.694729 83.33671 49.97793 82.71875 50.28125 C 78.95275 52.13025 73.957 56.52775 75.875 58.71875 C 77.717 60.82375 83.9685 53.5025 87.1875 54.1875 C 90.4065 54.8725 102.39025 55.29375 103.28125 53.71875 C 104.11656 52.242188 102.11354 47.196716 98.53125 46.96875 z M 89.4375 48.28125 C 88.574108 48.455592 87.723743 48.63393 86.90625 48.84375 C 87.089419 49.112165 87.315999 49.423815 87.6875 49.875 C 88.14089 50.42564 88.6392 50.945791 89.03125 51.25 C 89.16193 51.3514 89.25535 51.39017 89.34375 51.4375 C 89.38185 51.332433 89.43685 51.252317 89.46875 51.0625 C 89.55815 50.530335 89.5535 49.739362 89.5 48.96875 C 89.484121 48.74007 89.461319 48.504272 89.4375 48.28125 z "
   transform="translate(89.452995,-1.643005)"
   id="path6910" />
		<radialGradient
   id="SVGID_15_"
   cx="177.30659"
   cy="47.398399"
   r="3.1134"
   gradientUnits="userSpaceOnUse">
			<stop
   offset="0"
   style="stop-color:#262262"
   id="stop6913" />
			<stop
   offset="1"
   style="stop-color:#2E3192"
   id="stop6915" />
		</radialGradient>
		
		<radialGradient
   id="SVGID_16_"
   cx="300.24561"
   cy="135.9512"
   r="35.863098"
   gradientUnits="userSpaceOnUse">
			<stop
   offset="0"
   style="stop-color:#262262"
   id="stop6920" />
			<stop
   offset="1"
   style="stop-color:#2E3192"
   id="stop6922" />
		</radialGradient>
		<path
   style="fill:#ffffff;fill-opacity:1;stroke:none;stroke-width:2;stroke-miterlimit:10"
   d="m 228.25,100.46875 c -1.37131,0.0671 -2.69653,0.50572 -4.1875,1.25 -2.55017,1.27301 -5.51226,3.44714 -9.53125,6 -1.21768,0.77347 -2.59761,1.57893 -4.03125,2.40625 -1.37796,3.79038 -2.30485,8.43994 -2.5,14.1875 -0.28,8.224 6.70325,16.02425 6.15625,17.53125 -0.548,1.506 -9.86225,22.3355 -14.65625,24.9375 -4.794,2.603 -9.332,2.46875 -11.25,5.34375 -1.917,2.877 -4.2415,6.28275 -2.1875,6.96875 2.055,0.685 10.19025,2.34375 13.65625,2.34375 3.466,0 26.06175,-36.30425 30.71875,-38.90625 3.1112,-1.73832 3.30272,-18.92983 3.8125,-30.8125 -1.73123,-4.39986 -2.13232,-8.12471 -3.4375,-10.96875 -0.89861,-0.21115 -1.73972,-0.3215 -2.5625,-0.28125 z"
   transform="translate(89.452995,-1.643005)"
   id="path6924"
   inkscape:connector-curvature="0"
   sodipodi:nodetypes="sssccccccssccs" />
		<radialGradient
   id="SVGID_17_"
   cx="194.7363"
   cy="130.6523"
   r="29.125601"
   gradientUnits="userSpaceOnUse">
			<stop
   offset="0"
   style="stop-color:#262262"
   id="stop6927" />
			<stop
   offset="1"
   style="stop-color:#2E3192"
   id="stop6929" />
		</radialGradient>
		<path
   style="fill:#ffffff;fill-opacity:1;stroke:none;stroke-width:2;stroke-miterlimit:10"
   d="m 111.71875,107.1875 c -0.91584,0.26996 -1.8053,0.62039 -2.625,1.09375 -9.725,5.616 -21.771,5.06575 -27.25,13.96875 -5.479,8.902 -0.416,13.41525 -4.25,19.03125 -3.836,5.615 -5.6045,8.6335 -3.6875,10.6875 1.918,2.054 2.47375,6.44225 3.84375,6.03125 1.369,-0.411 1.8955,-4.649 3.8125,-4.375 1.918,0.274 4.53125,-0.40875 4.53125,-1.09375 0,-0.685 0.41775,-14.1115 2.46875,-19.3125 2.051,-5.201 -1.103999,-9.59975 33,-8.09375 4.88338,-0.0725 8.31811,-0.29543 10.75,-0.625 -12.02509,-3.15542 -16.76186,-10.47657 -20.59375,-17.3125 z"
   transform="translate(89.452995,-1.643005)"
   id="path6931"
   inkscape:connector-curvature="0"
   sodipodi:nodetypes="cscccccssccc" />
		<radialGradient
   id="SVGID_18_"
   cx="268.7319"
   cy="103.4189"
   r="95.18"
   gradientUnits="userSpaceOnUse">
			<stop
   offset="0"
   style="stop-color:#262262"
   id="stop6934" />
			<stop
   offset="1"
   style="stop-color:#2E3192"
   id="stop6936" />
		</radialGradient>
		<path
   style="fill:#ffffff;fill-opacity:1;stroke:none;stroke-width:2;stroke-miterlimit:10"
   d="M 112.46875 19.96875 C 100.86234 20.017281 99.013125 26.524563 92.78125 28.75 C 85.11125 31.489 75.947 34.606 75.125 36.25 C 74.707716 37.086604 75.218571 37.780527 75.78125 38.4375 L 75.9375 38.21875 C 76.31459 37.653725 76.65594 37.649787 77.03125 37.53125 C 77.40656 37.412713 77.82709 37.33114 78.28125 37.28125 C 79.17965 37.182564 80.18705 37.173744 81.09375 37.5 C 81.10375 37.5036 81.115 37.4963 81.125 37.5 C 81.27671 37.555999 81.45767 37.643324 81.65625 37.84375 C 81.8632 38.052625 82.04414 38.572675 81.9375 38.9375 C 81.83086 39.302325 81.63463 39.426311 81.5 39.53125 C 81.36537 39.636189 81.24385 39.72386 81.125 39.78125 C 80.6496 40.010811 80.10866 40.132025 79.5 40.28125 C 78.28269 40.5797 76.9375 40.8125 76.9375 40.8125 L 76.6875 40.84375 C 76.399619 42.683987 76.244606 47.195193 82.53125 49.125 C 89.44825 51.249 100.1875 46.45925 100.1875 50.15625 C 100.1875 53.85425 83.493 53.222 85 57.125 C 86.507 61.028 94.7145 55.084 104.4375 59.125 C 114.1625 63.166 105.8 94.596 112.375 106.375 C 116.39799 113.5844 120.97164 121.07409 134.125 123.9375 C 134.11436 123.72486 134.06398 122.49792 134.0625 122.46875 C 133.60421 122.00124 127.44446 115.66032 124.4375 107.6875 C 122.8778 103.55203 122.19769 98.988305 123.9375 94.75 C 125.67731 90.511695 129.80146 86.774492 137.28125 84.25 L 137.9375 86.15625 C 130.80729 88.562758 127.2915 91.897055 125.8125 95.5 C 124.3335 99.102945 124.85895 103.14597 126.3125 107 C 129.21961 114.70807 135.75 121.375 135.75 121.375 L 136.03125 121.65625 L 136.03125 122.03125 C 136.03125 122.03125 136.74037 135.43495 136.96875 149.0625 C 137.08294 155.87627 137.07142 162.74736 136.8125 168.0625 C 136.68304 170.72007 136.50537 172.97822 136.21875 174.6875 C 136.07544 175.54214 135.90398 176.25363 135.6875 176.84375 C 135.47102 177.43387 135.27 177.97438 134.59375 178.3125 C 132.70071 179.25902 129.03242 180.85228 126.125 182.84375 C 124.67129 183.83948 123.40303 184.93525 122.6875 186 C 122.08375 186.89789 121.92641 187.70137 122.09375 188.5625 C 123.94061 189.26737 125.8829 189.23982 127.71875 188.84375 C 129.70588 188.41505 131.38894 187.6535 132.875 187.5625 C 133.15016 187.54566 134.25939 187.26468 135.5 186.78125 C 136.74061 186.29782 138.20445 185.63492 139.59375 184.84375 C 140.98305 184.05258 142.30121 183.14379 143.21875 182.25 C 144.13629 181.35621 144.58775 180.48305 144.59375 179.90625 C 144.61886 177.75963 145.09292 175.1106 145.75 172.6875 C 146.40708 170.2644 147.18772 168.12945 148.1875 166.84375 C 148.10179 166.95399 148.25775 166.73072 148.375 166.375 C 148.49225 166.01928 148.63131 165.48841 148.78125 164.875 C 149.08113 163.64818 149.42562 161.97796 149.78125 160 C 150.4925 156.04408 151.24443 150.89614 151.8125 145.625 C 152.38057 140.35386 152.75525 134.94986 152.71875 130.5625 C 152.70049 128.36882 152.58859 126.43906 152.34375 124.90625 C 152.09891 123.37344 151.67137 122.25105 151.3125 121.78125 L 152.90625 120.5625 C 153.65463 121.5422 154.04298 122.90647 154.3125 124.59375 C 154.32534 124.67415 154.33159 124.76183 154.34375 124.84375 C 159.3884 124.4623 165.07671 123.72457 171.5625 122.53125 C 216.2125 114.31325 220.02525 96.49425 231.53125 99.78125 C 234.75025 106.08125 232.8505 115.33875 247.4375 126.84375 C 262.0245 138.34875 266.412 134.8525 268.125 138.6875 C 269.836 142.5225 268.86275 163.8295 267.21875 165.0625 C 262.97175 165.3365 252.10425 169.3765 258.40625 172.9375 C 264.70525 176.4985 274.2765 175.4025 277.5625 172.9375 C 280.8495 170.4735 285.788 142.8155 282.5 137.0625 C 279.214 131.3105 275.85575 128.271 272.84375 120.875 C 269.82975 113.479 267.99225 92.675 264.15625 86.375 C 263.59225 85.447 263.0685 84.53125 262.5625 83.65625 C 272.6135 83.78525 288.22475 71.59475 277.96875 51.71875 C 255.91775 14.190754 220.2995 30.0725 220.4375 32.8125 C 220.5745 35.5515 224.945 34.33225 230.875 33.90625 C 258.678 31.98925 268.928 52.14125 269.75 60.90625 C 270.572 69.67225 262.8985 73.21875 259.0625 73.21875 C 255.2285 73.21875 247.03125 71.21875 247.03125 71.21875 C 245.73825 70.70875 244.33325 70.17525 242.78125 69.65625 C 226.41425 64.17725 154.56125 75.34125 144.90625 66.78125 C 140.78974 63.131553 139.81523 55.06515 138.46875 46.6875 C 138.56762 48.751843 138.6026 51.121851 138.5625 53.46875 C 138.51945 55.985581 138.3906 58.460967 138.25 60.46875 C 138.1094 62.476533 138.00222 63.892826 137.75 64.75 C 137.32383 66.200489 136.26283 67.58139 135 68.96875 C 133.73717 70.35611 132.23133 71.726883 130.84375 72.90625 C 129.72644 73.855902 129.53606 74.894755 129.40625 76.03125 C 129.34135 76.599497 129.31849 77.15325 129.15625 77.75 C 128.99401 78.34675 128.57147 79.071785 127.84375 79.375 C 127.19175 79.646834 126.4457 79.609661 125.75 79.375 C 125.0543 79.140339 124.36864 78.739697 123.59375 78.15625 C 122.04397 76.989355 120.11454 75.114545 117.4375 72.4375 C 114.33775 69.337928 114.02886 63.802985 114.34375 58.875 C 114.5012 56.411008 114.86477 54.063062 115.21875 52.25 C 115.39574 51.343469 115.55958 50.577049 115.71875 49.96875 C 115.87792 49.360451 115.98993 48.975099 116.15625 48.625 C 116.7655 47.340727 117.26828 45.709117 116.6875 43.5625 C 115.6167 43.091525 114.77958 42.254774 114.28125 41.15625 C 113.65982 39.786343 113.35321 38.132683 113.21875 36.5 C 113.08429 34.867317 113.115 33.253776 113.28125 31.9375 C 113.36438 31.279362 113.4763 30.710669 113.625 30.21875 C 113.7737 29.726831 113.87902 29.316222 114.40625 28.90625 L 115.625 30.46875 C 115.65874 30.442524 115.67224 30.44898 115.6875 30.4375 C 115.64915 30.495578 115.58125 30.615825 115.53125 30.78125 C 115.43124 31.112101 115.35435 31.608685 115.28125 32.1875 C 115.13505 33.34513 115.06533 34.860308 115.1875 36.34375 C 115.30967 37.827192 115.6239 39.276751 116.09375 40.3125 C 116.5636 41.348249 117.08439 41.864725 117.75 41.96875 L 118.375 42.0625 L 118.5625 42.65625 C 119.47779 45.553567 118.69986 47.927655 117.96875 49.46875 C 117.96357 49.479651 117.80221 49.91092 117.65625 50.46875 C 117.51029 51.02658 117.32601 51.786766 117.15625 52.65625 C 116.81673 54.395219 116.4943 56.643867 116.34375 59 C 116.04264 63.712265 116.63315 68.789822 118.875 71.03125 C 121.53996 73.696205 123.45203 75.506895 124.8125 76.53125 C 125.49274 77.043428 126.03642 77.344005 126.40625 77.46875 C 126.77608 77.5935 126.92425 77.60192 127.09375 77.53125 C 127.188 77.491965 127.1725 77.503719 127.25 77.21875 C 127.32748 76.933781 127.3655 76.411378 127.4375 75.78125 C 127.58144 74.520995 127.94081 72.753348 129.5625 71.375 C 130.91392 70.226367 132.36283 68.90864 133.53125 67.625 C 134.69967 66.34136 135.55467 65.065011 135.8125 64.1875 C 135.90278 63.880674 136.11247 62.276498 136.25 60.3125 C 136.38753 58.348502 136.52 55.919794 136.5625 53.4375 C 136.605 50.955206 136.58438 48.429562 136.46875 46.34375 C 136.35312 44.257938 136.06878 42.531739 135.84375 41.96875 C 135.08916 40.080906 134.3929 36.895594 133.65625 33.96875 C 133.28793 32.505328 132.92162 31.124308 132.5625 30.0625 C 132.20338 29.000692 131.7057 28.21373 131.75 28.25 L 132.3125 27.5625 C 130.01547 24.397559 126.83296 22.046785 122.25 21.09375 C 118.35919 20.284875 115.14715 19.957551 112.46875 19.96875 z M 100.03125 31.21875 C 101.11544 31.190547 102.20475 31.32225 103.15625 31.6875 C 106.96325 33.1485 106.2305 34.61225 106.6875 34.15625 C 106.42984 34.585636 104.2648 37.125083 100.65625 36.96875 C 96.45725 36.78675 94.806 35.774 94.625 35.5 C 94.441 35.226 95.625 35.047 95.625 34.5 C 95.625 33.953 95.994 33.26475 94.625 32.96875 C 93.5975 32.74675 96.778688 31.303359 100.03125 31.21875 z M 136.15625 35.71875 C 136.48384 37.029686 136.78995 38.289796 137.09375 39.34375 C 136.8118 38.116003 136.51445 36.893414 136.15625 35.71875 z "
   transform="translate(89.452995,-1.643005)"
   id="path6938" />
		
		
		
		<path
   d="m 188.235,31.654 c 0,0.252 1.027,0.525 1.096,0.914 0.068,0.388 -1.004,0.708 -0.867,1.072 0.137,0.365 1.574,1.393 2.465,0.753 0.891,-0.64 1.324,-1.05 1.004,-1.757 -0.318,-0.708 -1.393,-1.644 -2.305,-1.484 -0.915,0.16 -1.393,0.114 -1.393,0.502 z"
   id="path6946"
   style="fill:#ffffff;fill-opacity:1;stroke:none"
   inkscape:connector-curvature="0" />
		
	</g>
	<radialGradient
   id="SVGID_19_"
   cx="394.45169"
   cy="400.5459"
   r="327.21191"
   gradientUnits="userSpaceOnUse">
		<stop
   offset="0"
   style="stop-color:#262262"
   id="stop6951" />
		<stop
   offset="1"
   style="stop-color:#2E3192"
   id="stop6953" />
	</radialGradient>
	<path
   style="fill:#ffffff;fill-opacity:1;stroke:none"
   clip-path="url(#clipPath4366)"
   d="M 305 158.03125 L -88.09375 546.1875 L -3.53125 646.34375 L 305 341.6875 L 613.53125 646.34375 L 698.09375 546.1875 L 305 158.03125 z M 240.53125 235.09375 L 368.96875 235.09375 L 368.96875 242.0625 C 367.48896 242.08159 366.122 242.15587 364.875 242.34375 L 365.34375 243 C 366.82929 242.21788 368.70884 242.63052 369.71875 244.03125 L 374.65625 250.90625 C 375.76325 252.44025 375.408 254.5805 373.875 255.6875 L 373.75 255.78125 L 374.40625 257.46875 L 375.5625 257.46875 C 377.4545 257.46875 378.96875 258.985 378.96875 260.875 L 378.96875 269.34375 C 378.96875 271.23275 377.4545 272.78125 375.5625 272.78125 L 374.21875 272.78125 L 373.71875 274.25 L 374.375 274.6875 C 375.953 275.7295 376.38575 277.8595 375.34375 279.4375 L 370.6875 286.46875 C 369.906 287.65225 368.50098 288.18141 367.1875 287.9375 L 367.09375 288.25 C 368.44044 288.86263 369.31071 290.27403 369.09375 291.8125 L 367.90625 300.1875 C 367.70038 301.64731 366.58215 302.76068 365.21875 303.0625 L 365.21875 303.125 C 366.37944 303.23495 367.4629 303.90355 368 305.03125 L 371.65625 312.6875 C 372.45776 314.36732 371.74403 316.3483 370.09375 317.1875 L 370.65625 318.5 C 371.29757 318.36461 371.97371 318.3125 372.65625 318.3125 C 377.94925 318.3125 382.1875 322.56675 382.1875 327.84375 C 382.1885 333.11875 377.95025 337.40625 372.65625 337.40625 C 367.36325 337.40625 363.09375 333.11875 363.09375 327.84375 C 363.09375 324.44817 364.86186 321.50841 367.53125 319.8125 L 367 318.59375 C 365.43579 319.01387 363.75367 318.29621 363.03125 316.78125 L 359.40625 309.15625 C 358.59325 307.45025 359.293 305.40675 361 304.59375 L 361.9375 304.15625 L 361.78125 302.8125 L 361.34375 302.75 C 359.47075 302.487 358.20475 300.747 358.46875 298.875 L 359.65625 290.5 C 359.91925 288.628 361.627 287.2985 363.5 287.5625 L 363.71875 287.59375 L 364.15625 286.28125 L 363.65625 285.96875 C 362.07925 284.92675 361.67775 282.79575 362.71875 281.21875 L 367.375 274.15625 C 368.12577 273.01929 369.42787 272.51745 370.6875 272.6875 L 370.875 272.125 C 370.01092 271.49991 369.4375 270.49276 369.4375 269.34375 L 369.4375 260.875 C 369.4375 259.67815 370.04498 258.61307 370.96875 258 L 370.84375 257.6875 C 369.45248 258.18427 367.85034 257.73288 366.9375 256.46875 L 361.96875 249.625 C 360.89408 248.13445 361.1709 246.06722 362.59375 244.9375 L 361.46875 243.3125 C 358.74867 244.54785 356.91139 246.9315 356.0625 251.5 L 356.0625 333.4375 L 344 316.09375 L 348.53125 316.09375 L 348.53125 310.78125 C 342.87725 310.77025 337.81125 310.79125 332.15625 310.78125 L 332.15625 316.09375 L 337.5625 316.09375 L 328.625 333.4375 L 319.6875 316.09375 L 325.09375 316.09375 L 325.09375 310.78125 L 308.1875 310.78125 L 308.1875 316.09375 L 313.59375 316.09375 L 304.75 333.4375 L 295.90625 316.09375 L 301.3125 316.09375 L 301.3125 310.78125 L 284.125 310.78125 L 284.125 316.09375 L 289.5 316.09375 L 280.5625 333.4375 L 271.65625 316.09375 L 277.03125 316.09375 L 277.03125 310.78125 C 271.37625 310.79125 266.5915 310.77025 260.9375 310.78125 L 260.9375 316.09375 L 265.5 316.09375 L 253.40625 333.4375 L 253.40625 251.5 C 252.56003 246.94893 250.75585 244.55239 248.0625 243.3125 L 246.90625 244.96875 C 248.30267 246.10341 248.59825 248.14509 247.53125 249.625 L 242.5625 256.46875 C 241.65048 257.73288 240.04741 258.18427 238.65625 257.6875 L 238.53125 258 C 239.45502 258.61307 240.0625 259.67815 240.0625 260.875 L 240.0625 269.34375 C 240.0625 270.49276 239.48908 271.49991 238.625 272.125 L 238.8125 272.6875 C 240.07227 272.51745 241.37351 273.01929 242.125 274.15625 L 246.78125 281.21875 C 247.82325 282.79575 247.42175 284.92675 245.84375 285.96875 L 245.34375 286.28125 L 245.78125 287.59375 L 246 287.5625 C 247.873 287.2985 249.58075 288.628 249.84375 290.5 L 251.03125 298.875 C 251.29525 300.747 250.02825 302.487 248.15625 302.75 L 247.71875 302.8125 L 247.5625 304.15625 L 248.5 304.59375 C 250.206 305.40675 250.90775 307.45025 250.09375 309.15625 L 246.46875 316.78125 C 245.74286 318.30536 244.04101 319.0306 242.46875 318.59375 L 241.96875 319.78125 C 244.64538 321.47573 246.40625 324.44268 246.40625 327.84375 C 246.40625 333.11875 242.13775 337.40625 236.84375 337.40625 C 231.54975 337.40625 227.3125 333.11875 227.3125 327.84375 C 227.3125 322.56675 231.55075 318.3125 236.84375 318.3125 C 237.52629 318.3125 238.20243 318.36461 238.84375 318.5 L 239.40625 317.1875 C 237.75594 316.3483 237.04126 314.36732 237.84375 312.6875 L 241.5 305.03125 C 242.0371 303.90355 243.12056 303.23495 244.28125 303.125 L 244.28125 303.0625 C 242.91785 302.76068 241.79962 301.64731 241.59375 300.1875 L 240.40625 291.8125 C 240.19011 290.27403 241.05946 288.86263 242.40625 288.25 L 242.3125 287.90625 C 240.99836 288.15912 239.59525 287.65529 238.8125 286.46875 L 234.15625 279.4375 C 233.11425 277.8595 233.548 275.7295 235.125 274.6875 L 235.78125 274.25 L 235.28125 272.78125 L 233.9375 272.78125 C 232.0465 272.78125 230.53125 271.23275 230.53125 269.34375 L 230.53125 260.875 C 230.53125 258.985 232.0465 257.46875 233.9375 257.46875 L 235.09375 257.46875 L 235.75 255.78125 L 235.59375 255.6875 C 234.06075 254.5805 233.73575 252.44025 234.84375 250.90625 L 239.78125 244.03125 C 240.79116 242.63052 242.67071 242.21788 244.15625 243 L 244.625 242.34375 C 243.37788 242.15742 242.01261 242.0814 240.53125 242.0625 L 240.53125 235.09375 z M 259.75 242.90625 L 259.75 259.03125 L 276.65625 259.03125 L 276.65625 242.90625 L 259.75 242.90625 z M 284.125 242.90625 L 284.125 259.03125 L 301.03125 259.03125 L 301.03125 242.90625 L 284.125 242.90625 z M 308.46875 242.90625 L 308.46875 259.03125 L 325.375 259.03125 L 325.375 242.90625 L 308.46875 242.90625 z M 332.84375 242.90625 L 332.84375 259.03125 L 349.71875 259.03125 L 349.71875 242.90625 L 332.84375 242.90625 z M 241.875 246.28125 C 241.80856 246.32592 241.744 246.3905 241.6875 246.46875 L 239.03125 250.15625 C 239.23176 250.15406 239.42658 250.20426 239.625 250.28125 L 239.75 250.3125 C 240.585 250.6345 241.0105 251.57025 240.6875 252.40625 L 239.96875 254.25 C 240.23875 254.37203 240.46856 254.32169 240.65625 254.0625 L 244.625 248.59375 C 244.75046 248.41941 244.76441 248.25292 244.71875 248.09375 L 244.375 248.59375 C 243.863 249.32875 242.86 249.511 242.125 249 L 242 248.9375 C 241.265 248.4265 241.08275 247.4225 241.59375 246.6875 L 241.875 246.28125 z M 367.78125 246.46875 L 367.90625 246.6875 C 368.41825 247.4225 368.234 248.4265 367.5 248.9375 L 367.375 249 C 366.64 249.511 365.637 249.32875 365.125 248.59375 L 364.78125 248.09375 C 364.73532 248.25292 364.74954 248.41941 364.875 248.59375 L 368.8125 254.0625 C 369.001 254.32169 369.25373 254.37203 369.53125 254.25 L 368.8125 252.40625 C 368.4895 251.57025 368.915 250.6345 369.75 250.3125 L 369.875 250.28125 C 370.07365 250.20426 370.26818 250.15406 370.46875 250.15625 L 367.78125 246.46875 z M 237.09375 261.75 L 236.5625 263.0625 C 236.2375 263.8985 235.30475 264.323 234.46875 264 L 234.34375 263.9375 C 233.96612 263.79097 233.67876 263.51814 233.5 263.1875 L 233.5 268.46875 C 233.5 268.81238 233.68266 269.04803 234.03125 269.09375 L 233.75 268.1875 C 233.468 267.3365 233.93125 266.43825 234.78125 266.15625 L 234.9375 266.09375 C 235.7885 265.81175 236.68775 266.274 236.96875 267.125 L 237.09375 267.5 L 237.09375 261.75 z M 372.40625 261.75 L 372.40625 267.5 L 372.53125 267.125 C 372.81325 266.274 373.7115 265.81175 374.5625 266.09375 L 374.71875 266.15625 C 375.56975 266.43825 376.032 267.3365 375.75 268.1875 L 375.46875 269.09375 C 375.81734 269.04803 376 268.81238 376 268.46875 L 376 263.1875 C 375.82111 263.51814 375.53388 263.79097 375.15625 263.9375 L 375.03125 264 C 374.19525 264.323 373.2615 263.8985 372.9375 263.0625 L 372.40625 261.75 z M 259.75 264.9375 L 259.75 281.03125 L 276.65625 281.03125 L 276.65625 264.9375 L 259.75 264.9375 z M 284.125 264.9375 L 284.125 281.03125 L 301.03125 281.03125 L 301.03125 264.9375 L 284.125 264.9375 z M 308.46875 264.9375 L 308.46875 281.03125 L 325.375 281.03125 L 325.375 264.9375 L 308.46875 264.9375 z M 332.84375 264.9375 L 332.84375 281.03125 L 349.71875 281.03125 L 349.71875 264.9375 L 332.84375 264.9375 z M 240.0625 276.4375 L 240.5625 277.96875 C 240.8445 278.81775 240.38225 279.75025 239.53125 280.03125 L 239.40625 280.0625 C 238.94066 280.21642 238.4567 280.1398 238.0625 279.90625 L 240.84375 284.125 C 240.9254 284.24843 241.02006 284.33329 241.125 284.375 L 240.46875 282.34375 C 240.18675 281.49275 240.649 280.56225 241.5 280.28125 L 241.625 280.25 C 241.94375 280.14425 242.26193 280.13415 242.5625 280.21875 L 240.125 276.5 C 240.10683 276.47258 240.0818 276.46113 240.0625 276.4375 z M 369.4375 276.4375 C 369.4182 276.46113 369.39317 276.47258 369.375 276.5 L 366.9375 280.21875 C 367.23817 280.13415 367.55588 280.14425 367.875 280.25 L 368 280.28125 C 368.85 280.56225 369.31225 281.49275 369.03125 282.34375 L 368.375 284.375 C 368.47994 284.33329 368.5746 284.24843 368.65625 284.125 L 371.4375 279.90625 C 371.0433 280.1398 370.55934 280.21642 370.09375 280.0625 L 369.96875 280.03125 C 369.11775 279.75025 368.6545 278.81775 368.9375 277.96875 L 369.4375 276.4375 z M 237 278.03125 C 236.96488 278.17875 237.0185 278.339 237.125 278.5 L 237.21875 278.625 L 237 278.03125 z M 372.5 278.03125 L 372.28125 278.625 L 372.375 278.5 C 372.482 278.339 372.53525 278.17875 372.5 278.03125 z M 259.75 286.9375 L 259.75 303.0625 L 276.65625 303.0625 L 276.65625 286.9375 L 259.75 286.9375 z M 284.125 286.9375 L 284.125 303.0625 L 301.03125 303.0625 L 301.03125 286.9375 L 284.125 286.9375 z M 308.46875 286.9375 L 308.46875 303.0625 L 325.375 303.0625 L 325.375 286.9375 L 308.46875 286.9375 z M 332.84375 286.9375 L 332.84375 303.0625 L 349.71875 303.0625 L 349.71875 286.9375 L 332.84375 286.9375 z M 243.59375 291.78125 C 243.49875 291.8995 243.473 292.059 243.5 292.25 L 244.4375 298.9375 C 244.4645 299.129 244.53794 299.259 244.65625 299.34375 L 244.84375 297.65625 C 244.93675 296.76425 245.734 296.12575 246.625 296.21875 L 246.78125 296.25 C 247.16761 296.29033 247.49584 296.46341 247.75 296.71875 L 247.25 293.125 C 247.09454 293.59142 246.7265 293.98859 246.21875 294.15625 L 246.09375 294.21875 C 245.24275 294.49975 244.3435 294.0385 244.0625 293.1875 L 243.59375 291.78125 z M 365.90625 291.78125 L 365.4375 293.1875 C 365.1565 294.0385 364.25725 294.49975 363.40625 294.21875 L 363.28125 294.15625 C 362.7729 293.98859 362.40534 293.59142 362.25 293.125 L 361.75 296.71875 C 362.00423 296.46341 362.33282 296.29033 362.71875 296.25 L 362.875 296.21875 C 363.766 296.12575 364.56425 296.76425 364.65625 297.65625 L 364.84375 299.34375 C 364.96206 299.259 365.0355 299.129 365.0625 298.9375 L 366 292.25 C 366.027 292.059 366.00125 291.8995 365.90625 291.78125 z M 243.90625 306.96875 C 243.87673 307.00886 243.83661 307.0432 243.8125 307.09375 L 240.90625 313.1875 C 240.82275 313.362 240.81819 313.51269 240.875 313.65625 L 241.1875 312.96875 C 241.5395 312.14475 242.4895 311.774 243.3125 312.125 L 243.4375 312.1875 C 244.2615 312.5395 244.6645 313.4895 244.3125 314.3125 L 244.15625 314.71875 L 246.09375 310.65625 C 245.83912 310.77157 245.54853 310.84366 245.25 310.8125 L 245.125 310.8125 C 244.235 310.7195 243.5945 309.92125 243.6875 309.03125 L 243.90625 306.96875 z M 365.59375 306.96875 L 365.8125 309.03125 C 365.9055 309.92125 365.265 310.7195 364.375 310.8125 L 364.25 310.8125 C 363.95147 310.84366 363.66077 310.77157 363.40625 310.65625 L 365.34375 314.71875 L 365.1875 314.3125 C 364.8355 313.4895 365.2395 312.5395 366.0625 312.1875 L 366.1875 312.125 C 367.0105 311.774 367.9605 312.14475 368.3125 312.96875 L 368.625 313.65625 C 368.68181 313.51269 368.67675 313.362 368.59375 313.1875 L 365.6875 307.09375 C 365.66339 307.0432 365.62327 307.00886 365.59375 306.96875 z M 236.84375 322.40625 C 233.73275 322.40625 231.40625 324.84975 231.40625 327.84375 C 231.40625 330.83775 233.72775 333.28125 236.84375 333.28125 C 239.95975 333.28125 242.28125 330.83775 242.28125 327.84375 C 242.28125 326.14363 241.52916 324.62392 240.3125 323.625 L 239.8125 324.8125 C 239.4605 325.6355 238.5105 326.00725 237.6875 325.65625 L 237.5625 325.625 C 236.7395 325.274 236.36775 324.324 236.71875 323.5 L 237.1875 322.4375 C 237.07682 322.43116 236.95658 322.40625 236.84375 322.40625 z M 372.65625 322.40625 C 372.54342 322.40625 372.42318 322.43116 372.3125 322.4375 L 372.78125 323.5 C 373.13225 324.324 372.7605 325.274 371.9375 325.625 L 371.8125 325.65625 C 370.9885 326.00725 370.00825 325.6355 369.65625 324.8125 L 369.15625 323.65625 C 367.95969 324.65551 367.21931 326.15963 367.21875 327.84375 C 367.21875 330.83775 369.54125 333.28125 372.65625 333.28125 C 375.77225 333.28125 378.09375 330.83775 378.09375 327.84375 C 378.09375 324.84975 375.76725 322.40625 372.65625 322.40625 z "
   transform="translate(89.452995,-1.643005)"
   id="polygon6955" />
		
	
	<g
   clip-path="url(#SVGID_8_)"
   id="g6957">
		
		
		
		
		
		
		
		
		
		
		
		
		
		
		
		
		
		
		
		
		
		
		
		
		
		
		
		
		
		
		
		
		
		
		
		
		
		
		
		
		
		
		
		
		
		
		
		
		
		
		
		
		
		
		
		
		
		
		
		
		
		
		
		
		
		
		
		
		
		
		
		
		
		
		
		
		
		
		
		
		
		
		
		
		
		
		
		
		
		
		
		
		
		
		
		
		
		
		
		
		
		
		
		
		
		
		
		
		
		
		
		
		
		
		
		
		
		
		
		
		
		
		
		
		
		
		
		
		
		
		
		
		
		
		
		
		
		
		
		
		
		
		
		
		
		
		
		
		
		
		
		
		
		
		
	</g>
	<g
   clip-path="url(#SVGID_8_)"
   id="g7269">
		<radialGradient
   id="SVGID_20_"
   cx="394.20261"
   cy="419.88379"
   r="19.3379"
   gradientUnits="userSpaceOnUse"
   xlink:href="#radialGradient9307">
			<stop
   offset="0"
   style="stop-color:#262262"
   id="stop7272" />
			<stop
   offset="1"
   style="stop-color:#2E3192"
   id="stop7274" />
		</radialGradient>
		<path
   style="fill:#ffffff;fill-opacity:1;stroke:none;stroke-width:2;stroke-miterlimit:10"
   d="m 304.75,402.1875 c -10.682,0 -19.34375,8.66275 -19.34375,19.34375 0,2.87924 0.65271,5.60731 1.78125,8.0625 2.67943,-1.33628 5.76466,-2.31235 9.28125,-2.75 -0.98475,-1.53172 -1.5625,-3.356 -1.5625,-5.3125 0,-5.432 4.41175,-9.84375 9.84375,-9.84375 5.431,0 9.84375,4.41175 9.84375,9.84375 0,1.95614 -0.57751,3.78076 -1.5625,5.3125 3.51659,0.43765 6.60182,1.41372 9.28125,2.75 1.12846,-2.45519 1.78125,-5.18326 1.78125,-8.0625 0,-10.681 -8.66675,-19.34375 -19.34375,-19.34375 z"
   transform="translate(89.452995,-1.643005)"
   id="path7276"
   inkscape:connector-curvature="0"
   sodipodi:nodetypes="ssccsssccss" />
		<radialGradient
   id="SVGID_21_"
   cx="394.20169"
   cy="470.31931"
   r="50.411999"
   gradientUnits="userSpaceOnUse">
			<stop
   offset="0"
   style="stop-color:#262262"
   id="stop7279" />
			<stop
   offset="1"
   style="stop-color:#2E3192"
   id="stop7281" />
		</radialGradient>
		<path
   style="fill:#ffffff;fill-opacity:1;stroke:none"
   d="m 300.5625,427.59375 c -19.912,0 -26.06575,16.722 -31.71875,22.375 -5.53022,5.53022 -19.11884,62.98513 -19.71875,65.53125 1.8057,-1.49925 3.85835,-2.7913 6.09375,-3.90625 11.05286,-5.51285 27.13362,-6.70445 48,-6.78125 l 0,-0.0312 1,0 0.53125,0 0.5625,0 1,0 0,0.0312 c 20.8683,0.0768 36.94689,1.2684 48,6.78125 2.23545,1.11495 4.25679,2.407 6.0625,3.90625 -0.59991,-2.54612 -14.21978,-60.00103 -19.75,-65.53125 -5.653,-5.653 -11.7755,-22.375 -31.6875,-22.375 z"
   transform="translate(89.452995,-1.643005)"
   id="path7283"
   inkscape:connector-curvature="0"
   sodipodi:nodetypes="sscscccccccscsss" />
		<radialGradient
   id="SVGID_22_"
   cx="394.20169"
   cy="523.53998"
   r="48.400501"
   gradientUnits="userSpaceOnUse"
   xlink:href="#radialGradient9319">
			<stop
   offset="0"
   style="stop-color:#262262"
   id="stop7286" />
			<stop
   offset="1"
   style="stop-color:#2E3192"
   id="stop7288" />
		</radialGradient>
		<path
   style="fill:#ffffff;fill-opacity:1;stroke:none"
   d="m 304.21875,505.75 0,0.0312 c -41.41273,0.0766 -63.72964,4.58509 -65.03125,35.84375 0.16125,-0.22231 0.33957,-0.44574 0.53125,-0.65625 0.98833,-1.08546 2.36643,-2.05098 4.09375,-2.96875 3.45464,-1.83554 8.3206,-3.43476 14.3125,-4.78125 11.98379,-2.69298 28.43978,-4.34375 46.625,-4.34375 18.18521,0 34.67221,1.65089 46.65625,4.34375 5.99202,1.34643 10.85776,2.94566 14.3125,4.78125 1.72737,0.91779 3.10539,1.88322 4.09375,2.96875 0.1907,0.20945 0.33941,0.43514 0.5,0.65625 -1.30156,-31.25866 -23.61464,-35.76712 -65.03125,-35.84375 l 0,-0.0312 c -0.181,0 -0.35125,0 -0.53125,0 -0.18,0 -0.35025,0 -0.53125,0 z"
   transform="translate(89.452995,-1.643005)"
   id="path7290"
   inkscape:connector-curvature="0"
   sodipodi:nodetypes="ccccsssssscccsc" />
		<radialGradient
   id="SVGID_23_"
   cx="394.20169"
   cy="542.96002"
   r="47.569"
   gradientUnits="userSpaceOnUse"
   xlink:href="#radialGradient9313">
			<stop
   offset="0"
   style="stop-color:#262262"
   id="stop7293" />
			<stop
   offset="1"
   style="stop-color:#2E3192"
   id="stop7295" />
		</radialGradient>
		<path
   style="fill:#ffffff;fill-opacity:1;stroke:none;stroke-width:2;stroke-miterlimit:10"
   d="M 304.75 529.84375 C 268.501 529.84375 239.125 536.44675 239.125 544.59375 C 239.125 544.71375 239.111 544.84775 239.125 544.96875 C 239.92365 552.38037 265.04257 558.42401 297.21875 559.25 C 297.26789 556.54863 298.0348 554.10244 299.3125 552.25 C 300.63388 550.33423 302.54784 549.03125 304.75 549.03125 C 306.95216 549.03125 308.89737 550.33423 310.21875 552.25 C 311.49627 554.10219 312.23192 556.54906 312.28125 559.25 C 344.9801 558.40999 370.375 552.16697 370.375 544.59375 C 370.375 536.44575 340.999 529.84375 304.75 529.84375 z M 304.75 551.03125 C 303.33138 551.03125 301.98892 551.85063 300.9375 553.375 C 299.92234 554.84681 299.26286 556.94377 299.21875 559.28125 C 301.04275 559.31545 302.88667 559.34375 304.75 559.34375 C 306.61512 559.34375 308.45552 559.31552 310.28125 559.28125 C 310.23496 556.94416 309.57752 554.8466 308.5625 553.375 C 307.51108 551.85063 306.16862 551.03125 304.75 551.03125 z "
   transform="translate(89.452995,-1.643005)"
   id="path7297" />
		<radialGradient
   id="SVGID_24_"
   cx="394.20169"
   cy="557.875"
   r="8.1648998"
   gradientUnits="userSpaceOnUse">
			<stop
   offset="0"
   style="stop-color:#262262"
   id="stop7300" />
			<stop
   offset="1"
   style="stop-color:#2E3192"
   id="stop7302" />
		</radialGradient>
		
			<ellipse
   stroke-miterlimit="10"
   cx="394.202"
   cy="557.875"
   rx="6.5560002"
   ry="9.5050001"
   id="ellipse7304"
   style="fill:#ffffff;fill-opacity:1;stroke:none;stroke-width:2;stroke-miterlimit:10"
   sodipodi:cx="394.202"
   sodipodi:cy="557.875"
   sodipodi:rx="6.5560002"
   sodipodi:ry="9.5050001"
   d="m 400.758,557.875 c 0,5.24947 -2.93523,9.505 -6.556,9.505 -3.62078,0 -6.556,-4.25553 -6.556,-9.505 0,-5.24947 2.93522,-9.505 6.556,-9.505 3.62077,0 6.556,4.25553 6.556,9.505 z" />
	</g>
	<use
   xlink:href="#SVGID_2_"
   overflow="visible"
   stroke-miterlimit="10"
   id="use7306"
   style="fill:none;stroke:#ffffff;stroke-width:7;stroke-miterlimit:10;stroke-opacity:1;overflow:visible"
   x="0"
   y="0"
   width="524"
   height="659" />
</g>
<radialGradient
   id="SVGID_25_"
   cx="394.20261"
   cy="575.52252"
   r="180.59351"
   gradientUnits="userSpaceOnUse"
   gradientTransform="translate(-6.8430057,2.7860081)">
	<stop
   offset="0.6316"
   style="stop-color:#FFFFFF"
   id="stop7309" />
	<stop
   offset="0.7049"
   style="stop-color:#F4F5F5"
   id="stop7311" />
	<stop
   offset="0.8549"
   style="stop-color:#EAEBEB"
   id="stop7313" />
	<stop
   offset="1"
   style="stop-color:#E6E7E8"
   id="stop7315" />
</radialGradient>
<path
   display="none"
   stroke-miterlimit="10"
   d="m 600.07399,496.41401 c 0,0 -35,101 -212.714,101 -177.714,0 -212.714,-101 -212.714,-101 0,0 -32,43 -29,61 3,18 64.428,102.788 241.714,102.788 177.286,0 238.714,-84.788 241.714,-102.788 3,-18 -29,-61 -29,-61 z"
   id="path7317"
   inkscape:connector-curvature="0"
   style="fill:url(#SVGID_25_);stroke:#000000;stroke-width:3;stroke-miterlimit:10;display:none" />
<g
   display="none"
   id="g7319"
   style="display:none"
   transform="translate(-6.8430057,2.7860081)">
	<path
   d="m 152.489,554.628 c 3,18 64.428,102.788 241.714,102.788 177.286,0 238.714,-84.788 241.714,-102.788"
   id="path7321"
   inkscape:connector-curvature="0"
   style="fill:none" />
	<path
   display="inline"
   d="m 190.566,557.796 1.968,-0.403 1.307,1.382 10.12,-7.123 c -0.281,-0.464 -0.494,-0.771 -0.636,-0.922 -1.142,-1.208 -2.714,-1.67 -4.716,-1.386 -2.002,0.285 -3.851,1.229 -5.546,2.831 l -0.217,0.205 -3.55,-0.805 c 6.417,-5.409 12.402,-5.177 17.956,0.697 l 0.579,0.612 -11.74,8.269 6.607,6.987 5.268,-3.715 c 3.463,-2.445 6.696,-3.861 9.698,-4.247 3.002,-0.386 5.338,0.304 7.009,2.07 0.657,0.695 1.113,1.437 1.369,2.225 l -3.231,1.21 c 0.174,-1.638 -0.038,-2.773 -0.638,-3.408 -0.757,-0.8 -1.822,-1.005 -3.195,-0.614 -1.374,0.391 -3.327,1.461 -5.86,3.213 l -13.311,9.153 c -2.855,1.971 -4.686,3.337 -5.492,4.099 -1.064,1.007 -1.197,1.933 -0.397,2.778 0.35,0.37 0.906,0.845 1.669,1.425 l -1.116,0.776 -6.788,-4.415 13.603,-9.559 -6.606,-6.987 -2.102,1.473 c -3.333,2.336 -6.61,3.646 -9.833,3.935 -3.223,0.287 -5.727,-0.514 -7.511,-2.4 -1.321,-1.397 -1.842,-3.128 -1.563,-5.193 l 3.732,-0.525 c -1.02,2.337 -0.874,4.2 0.44,5.59 1.892,2 5.343,1.24 10.353,-2.281 l 4.235,-2.975 -1.865,-1.972 z"
   id="path7323"
   inkscape:connector-curvature="0"
   style="display:inline" />
	<path
   display="inline"
   d="m 211.704,597.266 4.582,-4.81 c -4.404,2.253 -7.684,2.618 -9.839,1.095 -1.502,-1.061 -2.191,-2.624 -2.069,-4.688 0.123,-2.064 1.034,-4.299 2.733,-6.703 1.059,-1.499 3.043,-3.763 5.954,-6.793 2.911,-3.029 5.764,-5.803 8.561,-8.32 -0.367,-0.398 -0.635,-0.658 -0.805,-0.778 -1.4,-0.989 -3.049,-1.131 -4.947,-0.426 -1.898,0.706 -3.565,2.075 -5.002,4.107 l -3.639,-0.089 c 5.208,-6.579 11.071,-7.565 17.588,-2.961 l 0.917,0.647 c -3.12,2.777 -6.236,5.783 -9.349,9.019 -3.113,3.234 -5.281,5.718 -6.504,7.448 -1.33,1.882 -2.099,3.547 -2.307,4.993 -0.208,1.447 0.176,2.516 1.152,3.205 1.026,0.726 2.467,0.838 4.323,0.337 1.855,-0.501 3.911,-1.564 6.168,-3.192 l 15.008,-15.81 3.197,1.605 -4.92,4.91 -10.637,11.191 c -1.948,2.055 -3.16,3.419 -3.636,4.093 -0.887,1.255 -0.766,2.281 0.363,3.078 0.399,0.282 0.949,0.584 1.651,0.905 l -0.954,0.998 -7.589,-3.061 z"
   id="path7325"
   inkscape:connector-curvature="0"
   style="display:inline" />
	<path
   display="inline"
   d="m 221.815,600.879 3.374,-1.85 c -0.086,2.582 0.712,4.281 2.395,5.098 1.103,0.535 2.391,0.369 3.862,-0.498 1.471,-0.867 2.874,-2.282 4.207,-4.244 l 11.497,-16.954 c -0.427,-0.333 -0.734,-0.545 -0.921,-0.636 -1.542,-0.748 -3.193,-0.62 -4.951,0.385 -1.758,1.006 -3.18,2.628 -4.266,4.868 l -3.605,0.504 c 1.928,-3.476 4.317,-5.747 7.168,-6.815 2.851,-1.068 5.87,-0.829 9.058,0.718 l 1.136,0.551 c -1.468,7.431 -3.493,14.82 -6.075,22.168 l 19.061,-15.87 3.234,0.976 -4.055,5.646 -9.894,14.576 c -0.873,1.301 -1.511,2.366 -1.915,3.198 -0.546,1.126 -0.319,1.932 0.681,2.417 0.496,0.24 1.193,0.492 2.094,0.755 l -0.778,1.141 -7.84,-1.479 15.756,-23.235 -19.798,16.39 -1.593,-0.394 0.27,-0.557 c 2.427,-5.005 4.548,-11.651 6.363,-19.941 l -4.949,7.275 c -6.089,8.983 -11.49,12.332 -16.202,10.047 -1.646,-0.799 -2.75,-2.213 -3.314,-4.24 z"
   id="path7327"
   inkscape:connector-curvature="0"
   style="display:inline" />
	<path
   display="inline"
   d="m 255.798,617.014 2.912,-2.09 c 0.281,2.282 1.181,3.676 2.7,4.181 1.449,0.482 3.087,0.108 4.914,-1.12 1.827,-1.229 4.328,-3.654 7.503,-7.275 l 11.39,-12.961 c -1.017,-0.533 -1.909,-0.928 -2.678,-1.184 -2.061,-0.686 -3.885,-0.508 -5.474,0.532 -1.588,1.039 -2.819,2.87 -3.69,5.491 l -3.553,1.002 c 1.032,-2.478 2.249,-4.406 3.649,-5.787 1.552,-1.539 3.095,-2.489 4.627,-2.851 1.533,-0.36 3.545,-0.254 6.037,0.32 0.497,0.12 1.251,0.288 2.263,0.505 l 3.266,0.253 -2.052,6.812 -3.799,14.286 c -0.885,3.321 -1.32,5.558 -1.304,6.711 0.016,1.153 0.492,1.886 1.429,2.197 0.167,0.056 0.758,0.207 1.771,0.453 l -0.637,1.272 -7.3,-0.719 2.713,-10.184 -8.06,-2.681 c -2.788,3.181 -5.123,5.278 -7.004,6.294 -1.882,1.016 -3.784,1.204 -5.707,0.564 -1.823,-0.604 -3.129,-1.945 -3.916,-4.021 z m 17.763,-4.122 7.321,2.436 4.116,-15.536 -11.437,13.1 z"
   id="path7329"
   inkscape:connector-curvature="0"
   style="display:inline" />
	<path
   display="inline"
   d="m 286.731,626.848 2.844,-2.565 c 0.529,2.534 1.697,3.999 3.504,4.396 1.208,0.265 2.425,-0.192 3.652,-1.373 1.227,-1.18 2.261,-2.886 3.102,-5.119 l 7.217,-19.148 c -0.494,-0.224 -0.847,-0.36 -1.06,-0.406 -1.665,-0.365 -3.234,0.146 -4.709,1.533 -1.475,1.387 -2.479,3.298 -3.012,5.729 l -3.388,1.332 c 1.01,-3.638 2.762,-6.363 5.256,-8.175 2.493,-1.813 5.272,-2.383 8.337,-1.71 l 1.461,0.32 c 0.241,3.897 0.758,8.11 1.551,12.64 l 0.9,5.134 c 0.639,3.534 1.054,6.37 1.245,8.509 l 4.394,-11.662 c 1.51,-4.023 3.261,-7.008 5.251,-8.952 1.99,-1.944 4.041,-2.685 6.152,-2.222 0.751,0.165 1.444,0.521 2.08,1.067 l -1.713,2.573 c -0.69,-1.17 -1.451,-1.847 -2.283,-2.029 -2.192,-0.481 -4.237,1.809 -6.134,6.868 l -5.727,15.192 -2.069,6.013 -2.15,0.489 c -0.021,-1.649 -0.443,-4.815 -1.267,-9.496 l -1.746,-9.864 c -0.464,-2.636 -0.813,-4.977 -1.044,-7.022 l -2.917,7.771 c -1.854,4.909 -3.944,8.535 -6.272,10.879 -2.328,2.344 -4.735,3.243 -7.222,2.697 -1.745,-0.385 -3.156,-1.517 -4.233,-3.399 z"
   id="path7331"
   inkscape:connector-curvature="0"
   style="display:inline" />
	<path
   display="inline"
   d="m 319.142,635.598 2.777,-2.779 1.033,0.154 c 1.171,0.174 2.115,-0.221 2.832,-1.186 0.717,-0.965 1.524,-2.955 2.425,-5.971 l 5.078,-16.848 -4.178,-0.622 2.7,-2.791 10.036,1.495 -2.809,2.774 -2.513,-0.374 -4.399,14.618 c -1.349,4.474 -3.59,7.671 -6.723,9.592 l 5.965,1.104 -2.685,2.793 -9.539,-1.959 z"
   id="path7333"
   inkscape:connector-curvature="0"
   style="display:inline" />
	<path
   display="inline"
   d="m 355.738,638.195 2.369,-3.01 c 0.951,2.407 2.35,3.652 4.198,3.737 1.235,0.056 2.357,-0.602 3.367,-1.973 1.009,-1.37 1.738,-3.228 2.188,-5.571 l 3.865,-20.094 c -0.524,-0.138 -0.895,-0.212 -1.113,-0.222 -1.702,-0.078 -3.163,0.692 -4.38,2.31 -1.218,1.618 -1.883,3.67 -1.997,6.157 l -3.113,1.887 c 0.379,-3.756 1.644,-6.738 3.794,-8.947 2.149,-2.209 4.792,-3.242 7.927,-3.099 l 1.495,0.067 c 0.898,3.801 2.122,7.865 3.672,12.193 l 1.757,4.907 c 1.229,3.375 2.119,6.1 2.67,8.175 l 2.352,-12.238 c 0.807,-4.222 2.025,-7.459 3.658,-9.713 1.631,-2.254 3.526,-3.331 5.686,-3.232 0.769,0.034 1.512,0.269 2.23,0.699 l -1.252,2.827 c -0.879,-1.037 -1.744,-1.575 -2.595,-1.614 -2.242,-0.102 -3.869,2.501 -4.881,7.809 l -3.067,15.944 -1.02,6.276 -2.036,0.847 c -0.3,-1.622 -1.253,-4.671 -2.859,-9.144 l -3.393,-9.426 c -0.905,-2.519 -1.645,-4.767 -2.22,-6.744 l -1.558,8.153 c -0.994,5.152 -2.44,9.08 -4.336,11.785 -1.897,2.704 -4.117,3.998 -6.66,3.883 -1.786,-0.08 -3.368,-0.956 -4.748,-2.629 z"
   id="path7335"
   inkscape:connector-curvature="0"
   style="display:inline" />
	<path
   display="inline"
   d="m 389.1,641.48 2.307,-3.18 1.045,-0.011 c 1.185,-0.011 2.055,-0.549 2.61,-1.614 0.555,-1.065 1.043,-3.158 1.46,-6.277 l 2.373,-17.436 -4.224,0.041 2.229,-3.18 10.146,-0.098 -2.338,3.181 -2.541,0.024 -2.052,15.128 c -0.632,4.63 -2.344,8.139 -5.137,10.526 l 6.064,0.155 -2.214,3.18 -9.728,-0.439 z"
   id="path7337"
   inkscape:connector-curvature="0"
   style="display:inline" />
	<path
   display="inline"
   d="m 402.91,641.451 2.096,-3.237 0.903,-0.033 c 1.235,-0.046 2.12,-0.569 2.655,-1.571 0.535,-1.002 0.958,-2.918 1.27,-5.748 l 1.187,-10.976 c 0.348,-3.244 1.324,-5.946 2.929,-8.104 1.605,-2.159 3.477,-3.278 5.616,-3.357 0.955,-0.035 2.078,0.394 3.369,1.285 l -0.583,5.338 -0.996,0.037 c 0.018,-0.37 0.021,-0.677 0.013,-0.919 -0.098,-2.644 -1.144,-3.929 -3.137,-3.855 -1.963,0.072 -3.191,2.417 -3.687,7.033 l -1.071,9.861 c -0.317,2.958 -0.828,5.24 -1.533,6.847 -0.705,1.607 -1.84,3.05 -3.404,4.332 l 8.714,-0.129 c 2.503,-0.093 4.675,-0.97 6.516,-2.633 l -0.174,1.608 c -1.39,1.816 -2.44,2.983 -3.154,3.501 -0.714,0.518 -1.673,0.798 -2.878,0.843 l -14.651,-0.123 z"
   id="path7339"
   inkscape:connector-curvature="0"
   style="display:inline" />
	<path
   display="inline"
   d="m 446.437,637.124 1.666,-3.174 c 1.274,1.914 2.704,2.757 4.287,2.527 1.512,-0.219 2.809,-1.286 3.892,-3.204 1.082,-1.917 2.23,-5.206 3.446,-9.866 l 4.372,-16.691 c -1.147,-0.021 -2.122,0.026 -2.924,0.143 -2.149,0.311 -3.701,1.287 -4.655,2.929 -0.954,1.642 -1.233,3.829 -0.838,6.563 l -2.727,2.488 c -0.188,-2.677 0.035,-4.946 0.669,-6.809 0.697,-2.071 1.65,-3.612 2.858,-4.622 1.208,-1.009 3.055,-1.815 5.54,-2.42 0.497,-0.115 1.247,-0.303 2.249,-0.563 l 3.033,-1.237 1.219,7.008 3.008,14.474 c 0.696,3.365 1.311,5.561 1.842,6.584 0.531,1.022 1.285,1.464 2.263,1.322 0.175,-0.025 0.771,-0.154 1.786,-0.388 l 10e-4,1.423 -6.848,2.63 -2.139,-10.32 -8.407,1.217 c -1.066,4.093 -2.213,7.015 -3.44,8.766 -1.227,1.752 -2.843,2.772 -4.848,3.063 -1.903,0.273 -3.67,-0.341 -5.305,-1.843 z m 14.031,-11.646 7.636,-1.104 -3.284,-15.733 -4.352,16.837 z"
   id="path7341"
   inkscape:connector-curvature="0"
   style="display:inline" />
	<path
   display="inline"
   d="m 478.329,634.058 1.473,-3.563 0.883,-0.197 c 1.206,-0.27 1.981,-0.945 2.326,-2.027 0.344,-1.082 0.412,-3.043 0.204,-5.883 l -0.827,-11.009 c -0.247,-3.254 0.223,-6.088 1.408,-8.502 1.187,-2.415 2.823,-3.854 4.913,-4.321 0.933,-0.208 2.115,0.009 3.547,0.651 l 0.396,5.355 -0.974,0.218 c -0.051,-0.368 -0.102,-0.67 -0.154,-0.906 -0.576,-2.582 -1.838,-3.656 -3.785,-3.222 -1.917,0.428 -2.699,2.956 -2.348,7.585 l 0.738,9.893 c 0.225,2.967 0.137,5.304 -0.265,7.012 -0.401,1.707 -1.255,3.333 -2.561,4.878 l 8.545,-1.71 c 2.444,-0.545 4.421,-1.803 5.93,-3.771 l 0.12,1.612 c -1.035,2.039 -1.857,3.377 -2.465,4.016 -0.608,0.639 -1.501,1.089 -2.677,1.352 l -14.427,2.539 z"
   id="path7343"
   inkscape:connector-curvature="0"
   style="display:inline" />
	<path
   display="inline"
   d="m 499.268,629.282 1.396,-3.673 1.005,-0.282 c 1.141,-0.32 1.84,-1.067 2.099,-2.241 0.258,-1.173 0.181,-3.32 -0.231,-6.44 l -2.266,-17.449 -4.066,1.143 1.321,-3.651 9.768,-2.746 -1.426,3.682 -2.446,0.688 1.973,15.139 c 0.601,4.633 -0.135,8.468 -2.207,11.503 l 5.895,-1.436 -1.306,3.647 -9.509,2.116 z"
   id="path7345"
   inkscape:connector-curvature="0"
   style="display:inline" />
	<path
   display="inline"
   d="m 515.301,624.747 1.138,-3.758 0.251,-0.087 c 1.492,-0.518 2.373,-1.298 2.645,-2.34 0.271,-1.041 0.114,-3.071 -0.471,-6.088 l -3.708,-19.342 c -2.021,0.702 -3.398,2.012 -4.13,3.929 -0.731,1.918 -0.683,4.073 0.147,6.465 l 0.153,0.443 -2.199,2.887 c -1.167,-4.157 -1.043,-7.573 0.372,-10.247 1.415,-2.675 4.174,-4.724 8.277,-6.146 l 8.658,-3.004 0.669,6.159 -0.928,0.322 c -0.104,-0.552 -0.228,-1.035 -0.372,-1.452 -0.368,-1.062 -1.066,-1.64 -2.095,-1.735 -1.028,-0.095 -2.716,0.265 -5.062,1.079 l -0.457,0.158 2.433,12.526 6.567,-2.278 -0.782,2.597 c -2.363,0.384 -3.948,0.716 -4.753,0.995 l -0.736,0.255 0.445,2.281 c 0.504,2.562 0.652,4.679 0.446,6.351 -0.206,1.673 -0.841,3.482 -1.902,5.43 l 7.2,-2.07 1.567,-0.476 c 1.6,-0.555 2.838,-1.82 3.715,-3.796 l 0.324,1.694 c -0.903,3.009 -2.121,4.778 -3.652,5.31 l -0.684,0.215 -13.076,3.723 z"
   id="path7347"
   inkscape:connector-curvature="0"
   style="display:inline" />
	<path
   display="inline"
   d="m 535.193,615.879 0.683,-3.769 c 1.968,1.682 3.788,2.127 5.46,1.336 1.117,-0.528 1.802,-1.635 2.051,-3.318 0.25,-1.684 0.025,-3.666 -0.675,-5.948 l -5.994,-19.564 c -0.528,0.124 -0.891,0.232 -1.088,0.325 -1.541,0.729 -2.47,2.093 -2.788,4.093 -0.319,2 0.054,4.125 1.118,6.375 l -1.867,3.125 c -1.424,-3.496 -1.703,-6.724 -0.838,-9.683 0.865,-2.958 2.716,-5.108 5.553,-6.45 l 1.353,-0.64 c 2.573,2.938 5.559,5.956 8.955,9.055 l 3.851,3.513 c 2.667,2.405 4.729,4.396 6.188,5.973 l -3.653,-11.915 c -1.264,-4.107 -1.703,-7.539 -1.316,-10.295 0.387,-2.755 1.557,-4.595 3.51,-5.519 0.695,-0.329 1.462,-0.471 2.299,-0.427 l 0.217,3.084 c -1.262,-0.505 -2.277,-0.575 -3.048,-0.211 -2.028,0.96 -2.247,4.021 -0.655,9.186 l 4.756,15.524 2.038,6.022 -1.402,1.702 c -1.025,-1.293 -3.295,-3.54 -6.809,-6.741 l -7.411,-6.738 c -1.979,-1.803 -3.686,-3.442 -5.12,-4.92 l 2.441,7.933 c 1.534,5.019 2.097,9.167 1.688,12.444 -0.409,3.278 -1.765,5.461 -4.066,6.549 -1.62,0.764 -3.429,0.731 -5.431,-0.101 z"
   id="path7349"
   inkscape:connector-curvature="0"
   style="display:inline" />
	<path
   display="inline"
   d="m 585.458,591.197 -2.894,-5.979 c 0.563,4.915 -0.248,8.113 -2.431,9.597 -1.521,1.033 -3.227,1.13 -5.117,0.29 -1.89,-0.841 -3.661,-2.479 -5.316,-4.914 -1.031,-1.519 -2.454,-4.172 -4.268,-7.961 -1.814,-3.789 -3.409,-7.436 -4.783,-10.938 -0.503,0.204 -0.84,0.364 -1.012,0.481 -1.418,0.963 -2.13,2.457 -2.137,4.482 -0.006,2.024 0.69,4.066 2.089,6.126 l -1.361,3.376 c -4.33,-7.188 -3.195,-13.023 3.406,-17.508 l 0.928,-0.631 c 1.504,3.896 3.224,7.87 5.159,11.921 1.935,4.051 3.499,6.953 4.689,8.706 1.295,1.906 2.583,3.211 3.865,3.914 1.281,0.703 2.416,0.719 3.404,0.047 1.04,-0.706 1.651,-2.016 1.835,-3.929 0.183,-1.912 -0.092,-4.211 -0.822,-6.896 l -9.531,-19.604 2.627,-2.43 2.869,6.332 6.741,13.89 c 1.239,2.546 2.092,4.16 2.555,4.843 0.863,1.271 1.866,1.518 3.01,0.741 0.404,-0.274 0.88,-0.684 1.427,-1.228 l 0.601,1.243 -5.533,6.029 z"
   id="path7351"
   inkscape:connector-curvature="0"
   style="display:inline" />
	<path
   display="inline"
   d="m 592.775,583.184 -0.762,-3.771 c 2.439,0.851 4.3,0.595 5.579,-0.77 0.839,-0.894 1.063,-2.173 0.674,-3.836 -0.391,-1.662 -1.324,-3.422 -2.801,-5.278 l -12.766,-16.02 c -0.446,0.309 -0.74,0.539 -0.882,0.69 -1.174,1.25 -1.542,2.863 -1.105,4.841 0.438,1.978 1.563,3.817 3.378,5.521 l -0.591,3.592 c -2.744,-2.875 -4.202,-5.832 -4.374,-8.872 -0.172,-3.039 0.955,-5.851 3.38,-8.435 l 0.863,-0.92 c 6.658,3.611 13.11,7.743 19.357,12.395 l -9.48,-22.919 1.894,-2.797 4.184,5.551 10.974,13.782 c 0.981,1.22 1.81,2.146 2.483,2.779 0.913,0.856 1.749,0.879 2.511,0.068 0.376,-0.401 0.824,-0.992 1.343,-1.774 l 0.857,1.082 -3.744,7.046 -17.496,-21.955 9.758,23.777 -0.85,1.404 -0.451,-0.424 c -4.056,-3.806 -9.771,-7.809 -17.146,-12.008 l 5.474,6.89 c 6.766,8.486 8.356,14.639 4.772,18.457 -1.251,1.335 -2.929,1.969 -5.033,1.904 z"
   id="path7353"
   inkscape:connector-curvature="0"
   style="display:inline" />
</g>
</svg>