<?xml version="1.0" encoding="UTF-8" standalone="no"?>
<!-- Created with Inkscape (http://www.inkscape.org/) -->

<svg
   xmlns:dc="http://purl.org/dc/elements/1.1/"
   xmlns:cc="http://creativecommons.org/ns#"
   xmlns:rdf="http://www.w3.org/1999/02/22-rdf-syntax-ns#"
   xmlns:svg="http://www.w3.org/2000/svg"
   xmlns="http://www.w3.org/2000/svg"
   xmlns:sodipodi="http://sodipodi.sourceforge.net/DTD/sodipodi-0.dtd"
   xmlns:inkscape="http://www.inkscape.org/namespaces/inkscape"
   width="640"
   height="640"
   id="svg2"
   version="1.1"
   inkscape:version="0.48.5 r10040"
   sodipodi:docname="ic_coins_blue.svg"
   inkscape:export-filename="D:\Documents\Development\GitHub\LMH\app\src\main\res\drawable-xxhdpi\ic_coins_blue.png"
   inkscape:export-xdpi="13.5"
   inkscape:export-ydpi="13.5">
  <defs
     id="defs4" />
  <sodipodi:namedview
     id="base"
     pagecolor="#ffffff"
     bordercolor="#666666"
     borderopacity="1.0"
     inkscape:pageopacity="0.0"
     inkscape:pageshadow="2"
     inkscape:zoom="0.5"
     inkscape:cx="-220.27681"
     inkscape:cy="208.25944"
     inkscape:document-units="px"
     inkscape:current-layer="layer1"
     showgrid="true"
     gridtolerance="1"
     inkscape:window-width="1920"
     inkscape:window-height="1017"
     inkscape:window-x="-8"
     inkscape:window-y="-8"
     inkscape:window-maximized="1">
    <inkscape:grid
       type="xygrid"
       id="grid2985"
       empspacing="5"
       visible="true"
       enabled="true"
       snapvisiblegridlinesonly="true"
       spacingx="480px"
       spacingy="480px"
       originx="80px"
       originy="80px" />
  </sodipodi:namedview>
  <metadata
     id="metadata7">
    <rdf:RDF>
      <cc:Work
         rdf:about="">
        <dc:format>image/svg+xml</dc:format>
        <dc:type
           rdf:resource="http://purl.org/dc/dcmitype/StillImage" />
        <dc:title></dc:title>
      </cc:Work>
    </rdf:RDF>
  </metadata>
  <g
     inkscape:label="Layer 1"
     inkscape:groupmode="layer"
     id="layer1"
     transform="translate(0,-412.36218)">
    <path
       style="fill:#030d80;fill-opacity:1;fill-rule:evenodd;stroke:#ffffff;stroke-width:13.43445492000000000;stroke-miterlimit:4;stroke-opacity:1;stroke-dasharray:none"
       d="M 370 86.71875 C 293.40609 86.71875 227.80615 133.69335 200.40625 200.40625 C 221.86398 191.59266 245.3653 186.71875 270 186.71875 C 291.08495 186.71875 311.33422 190.29146 330.1875 196.84375 C 332.97916 192.1768 336.7027 188.05213 341.375 184.5 C 350.715 177.49641 362 174.00017 375.25 174 C 388.88 174.00017 400.11875 177.75691 408.96875 185.25 C 417.81875 192.74341 423.25125 203.257 425.28125 216.8125 L 405.0625 219.875 C 403.9325 210.83803 400.57875 203.69647 394.96875 198.5 C 389.35875 193.30381 382.6425 190.7189 374.8125 190.71875 C 366.4525 190.7189 359.49875 193.3968 353.96875 198.78125 C 352.07886 200.61818 350.52643 202.58993 349.28125 204.6875 C 410.81335 234.24942 453.28125 297.17048 453.28125 370 C 453.28125 394.6347 448.40734 418.13602 439.59375 439.59375 C 506.30663 412.19195 553.28125 346.59024 553.28125 270 C 553.28125 168.77485 471.23 86.71875 370 86.71875 z "
       transform="translate(0,412.36218)"
       id="path3763-1" />
    <path
       style="fill:#030d80;fill-opacity:1;fill-rule:evenodd;stroke:#ffffff;stroke-width:13.43434334000000000;stroke-miterlimit:4;stroke-opacity:1;stroke-dasharray:none"
       d="m 270.99642,599.08254 c -101.22432,0 -183.281248,82.05694 -183.281248,183.28125 0,101.22431 82.056928,183.28122 183.281248,183.28122 101.22432,0 183.28125,-82.05691 183.28125,-183.28122 0,-101.22431 -82.05693,-183.28125 -183.28125,-183.28125 z m 5.25,87.28125 c 13.63073,1.7e-4 24.86993,3.75697 33.71875,11.25 8.84862,7.49335 14.27906,18.00711 16.3125,31.5625 l -20.21875,3.0625 c -1.12972,-9.03689 -4.48337,-16.17857 -10.09375,-21.375 -5.61055,-5.19614 -12.32426,-7.7811 -20.15625,-7.78125 -8.35928,1.5e-4 -15.30864,2.67809 -20.84375,8.0625 -5.5352,5.3847 -8.31254,11.89397 -8.3125,19.5 -4e-5,8.35936 2.14488,19.26988 6.4375,32.75 l 35.59375,0 0,16.71875 -32.09375,0 c 1.43081,3.31365 2.1562,6.62399 2.15625,9.9375 -5e-5,6.5519 -1.56225,13.47638 -4.6875,20.78125 -3.12534,7.30496 -8.28325,14.76887 -15.4375,22.375 5.94932,-1.65676 11.38617,-2.46873 16.28125,-2.46875 6.25054,2e-5 13.29287,0.92981 21.125,2.8125 12.95295,3.08767 21.7186,4.62502 26.3125,4.625 5.57272,2e-5 12.80101,-2.0952 21.6875,-6.3125 l 6.5625,18.625 c -6.92848,2.93703 -12.29079,4.87755 -16.09375,5.78125 -3.80317,0.9037 -7.60968,1.34375 -11.375,1.34375 -3.16304,0 -6.35558,-0.30378 -9.59375,-0.90625 -2.03341,-0.37654 -6.90597,-1.75278 -14.625,-4.125 -7.71917,-2.37221 -12.70956,-3.76689 -14.96875,-4.21875 -3.53954,-0.60246 -7.08556,-0.90624 -10.625,-0.90625 -5.42224,10e-6 -11.20615,0.92979 -17.34375,2.8125 -6.13765,1.88272 -11.70436,4.44923 -16.75,7.6875 l -7.8125,-19.5625 c 7.22959,-3.99133 13.36058,-9.67584 18.40625,-17.09375 5.04563,-7.41785 7.59372,-16.49364 7.59375,-27.1875 -3e-5,-4.59375 -0.65729,-9.25549 -1.9375,-14 l -22.125,0 0,-16.71875 17.375,0 c -2.48519,-8.43445 -4.04099,-14.59026 -4.71875,-18.46875 -0.67779,-3.87827 -1.03127,-7.65352 -1.03125,-11.34375 -2e-5,-15.66403 5.80874,-27.9075 17.40625,-36.71875 9.33819,-7.00353 20.62068,-10.49983 33.875,-10.5 z"
       id="path3763"
       inkscape:connector-curvature="0" />
  </g>
</svg>
